<?xml version="1.0" encoding="UTF-8"?>
<svg id="Layer_1" xmlns="http://www.w3.org/2000/svg" viewBox="0 0 1675.05 946.24"><defs><style>.cls-1{fill:#00c859;stroke-width:0px;}</style></defs><path class="cls-1" d="M866.1,308.74c-1.89-2.57-4.97-3.97-8.15-3.97h-40.48c-2.12,0-4.18.68-5.88,1.94l-56.43,41.87-65.14-123.82c-3.23-6.13-10.27-9.22-16.96-7.44l-127.39,33.89c-15.66,4.17-28.39,15.58-34.23,30.7l-138.71,358.89-50.21-111.41c-1.41-3.13-4.35-5.31-7.77-5.74l-86.83-10.94c-3.8-.48-7.53,1.28-9.58,4.52-2.05,3.24-2.03,7.37.03,10.59l123.24,192.45c3.65,5.7,9.96,9.15,16.73,9.15h31.54c3.5,0,6.74-1.86,8.51-4.88l221.7-378.01,75.72,53.68c5.29,3.75,11.5,6.01,17.97,6.53l57.39,4.61c.26.02.53.03.79.03,2.62,0,5.14-1.04,7.01-2.92l86.21-86.87c3.36-3.39,3.89-8.8.92-12.85ZM350.68,697.83l-104.32-162.9,60.43,7.61,55.94,124.12-12.05,31.17ZM379.62,709.68h-12.35l162.79-421.2c3.43-8.89,10.91-15.59,20.12-18.04l108.6-28.89-272.22,464.16c-1.44,2.46-4.08,3.97-6.93,3.97ZM630.12,329.44l48.85-83.29,60.14,114.34-31.87,23.65-77.12-54.69ZM768.19,391.3l-33.82-2.71,86.36-64.08h13.75l-66.29,66.79Z"/><path class="cls-1" d="M591.53,523.98l28.59,78.1,27.28-78.1h22.98l-37.74,106.5h-25.04l-39.05-106.5h22.98Z"/><path class="cls-1" d="M688.96,523.98h21.67v106.5h-21.67v-106.5Z"/><path class="cls-1" d="M736.16,523.98h50.45c14.95,0,31.76,5.79,31.76,32.14,0,18.12-5.05,30.83-17.38,33.26l22.42,41.1h-23.54l-19.81-39.05c-3.55-.37-22.05-2.06-22.23-2.24v41.29h-21.67v-106.5ZM785.11,574.24c5.79,0,11.58-2.43,11.58-17,0-13.27-8.78-14.2-11.58-14.2h-27.28v31.2h27.28Z"/><path class="cls-1" d="M836.57,523.98h85.95v20.37h-32.14v86.13h-21.67v-86.13h-32.14v-20.37Z"/><path class="cls-1" d="M941.98,523.98h21.86v57.92c0,24.85,7.66,29.15,24.1,29.15,14.76,0,23.17-4.48,23.17-29.15v-57.92h21.86v57.92c0,43.53-22.42,49.51-45.03,49.51-25.41,0-46.15-4.86-45.96-49.51v-57.92Z"/><path class="cls-1" d="M1054.55,551.63c0-15.69,6.35-28.21,27.65-28.21,9.72,0,37.74,1.49,51.75,4.11v15.88s-29.15-1.12-48.39-1.12c-7.47,0-9.34,4.67-9.34,9.72v7.85c0,8.22,3.55,8.41,9.34,8.41h27.84c18.87,0,25.6,12.14,25.6,27.09v10.46c0,21.49-12.89,26.53-25.6,26.53-8.97,0-47.64-1.12-54.74-4.3v-15.51s31.58.75,50.07.75c6.54,0,8.59-7.85,8.59-7.85v-9.34c0-5.42-2.24-8.03-8.59-8.03h-27.09c-19.62,0-27.09-8.78-27.09-26.72v-9.72Z"/><path class="cls-1" d="M1163.18,523.98h21.67v78.47c-.19,7.66,3.74,7.66,9.72,7.66h43.91v20.37h-55.3c-11.58,0-19.99-6.54-19.99-19.99v-86.51Z"/><path class="cls-1" d="M1295.38,523.98h24.85l36.81,106.5h-22.98l-8.78-24.1h-37.18l-9.34,24.1h-22.98l39.61-106.5ZM1319.86,587.88l-12.14-36.25-13.45,36.25h25.6Z"/><path class="cls-1" d="M1375.65,523.79h49.89c23.17,0,32.14,12.52,32.14,28.59,0,14.39-5.61,21.11-13.64,23.73,7.1,2.06,14.2,9.53,14.2,24.1,0,19.24-9.16,30.27-32.7,30.27h-49.89v-106.69ZM1424.23,566.76c9.34,0,11.77-3.55,11.77-12.52,0-9.72-6.54-11.4-11.77-11.4h-26.9v23.92h26.9ZM1424.23,611.23c5.42,0,12.14-1.31,12.14-13.27,0-8.41-2.8-14.01-12.14-14.01,0,0-22.61.19-26.9,0v27.28h26.9Z"/></svg>